HIERARCHY
ROOT Hips
{
	OFFSET -0.001795 -0.223333 0.028219
	CHANNELS 6 Xposition Yposition Zposition Zrotation Yrotation Xrotation 
	JOINT LeftUpLeg
	{
		OFFSET 0.069520 -0.091406 -0.006815
		CHANNELS 3 Zrotation Yrotation Xrotation
		JOINT LeftLeg
		{
			OFFSET 0.034277 -0.375199 -0.004496
			CHANNELS 3 Zrotation Yrotation Xrotation
			JOINT LeftFoot
			{
				OFFSET -0.013596 -0.397961 -0.043693
				CHANNELS 3 Zrotation Yrotation Xrotation
				JOINT LeftToe
				{
					OFFSET 0.026358 -0.055791 0.119288
					CHANNELS 3 Zrotation Yrotation Xrotation
					End Site
					{
						OFFSET 0.000000 0.000000 0.000000
					}
				}
			}
		}
	}
	JOINT RightUpLeg
	{
		OFFSET -0.067670 -0.090522 -0.004320
		CHANNELS 3 Zrotation Yrotation Xrotation
		JOINT RightLeg
		{
			OFFSET -0.038290 -0.382569 -0.008850
			CHANNELS 3 Zrotation Yrotation Xrotation
			JOINT RightFoot
			{
				OFFSET 0.015774 -0.398415 -0.042312
				CHANNELS 3 Zrotation Yrotation Xrotation
				JOINT RightToe
				{
					OFFSET -0.025372 -0.048144 0.123348
					CHANNELS 3 Zrotation Yrotation Xrotation
					End Site
					{
						OFFSET 0.000000 0.000000 0.000000
					}
				}
			}
		}
	}
	JOINT Spine
	{
		OFFSET -0.002533 0.108963 -0.026696
		CHANNELS 3 Zrotation Yrotation Xrotation
		JOINT Spine1
		{
			OFFSET 0.005487 0.135180 0.001092
			CHANNELS 3 Zrotation Yrotation Xrotation
			JOINT Spine2
			{
				OFFSET 0.001457 0.052922 0.025425
				CHANNELS 3 Zrotation Yrotation Xrotation
				JOINT Neck
				{
					OFFSET -0.002778 0.213870 -0.042857
					CHANNELS 3 Zrotation Yrotation Xrotation
					JOINT Head
					{
						OFFSET 0.005152 0.064970 0.051349
						CHANNELS 3 Zrotation Yrotation Xrotation
						End Site
						{
							OFFSET 0.000000 0.000000 0.000000
						}
					}
				}
				JOINT LeftShoulder
				{
					OFFSET 0.078845 0.121749 -0.034090
					CHANNELS 3 Zrotation Yrotation Xrotation
					JOINT LeftArm
					{
						OFFSET 0.090977 0.030469 -0.008868
						CHANNELS 3 Zrotation Yrotation Xrotation
						JOINT LeftForeArm
						{
							OFFSET 0.259612 -0.012772 -0.027456
							CHANNELS 3 Zrotation Yrotation Xrotation
							JOINT LeftHand
							{
								OFFSET 0.249234 0.008986 -0.001171
								CHANNELS 3 Zrotation Yrotation Xrotation
								End Site
								{
									OFFSET 0.000000 0.000000 0.000000
								}
							}
						}
					}
				}
				JOINT RightShoulder
				{
					OFFSET -0.081759 0.118833 -0.038615
					CHANNELS 3 Zrotation Yrotation Xrotation
					JOINT RightArm
					{
						OFFSET -0.096012 0.032551 -0.009143
						CHANNELS 3 Zrotation Yrotation Xrotation
						JOINT RightForeArm
						{
							OFFSET -0.253742 -0.013329 -0.021401
							CHANNELS 3 Zrotation Yrotation Xrotation
							JOINT RightHand
							{
								OFFSET -0.255298 0.007772 -0.005559
								CHANNELS 3 Zrotation Yrotation Xrotation
								End Site
								{
									OFFSET 0.000000 0.000000 0.000000
								}
							}
						}
					}
				}
			}
		}
	}
}
MOTION
Frames: 11
Frame Time: 0.050000
0.000000 0.804016 0.000000 5.372632 -25.734158 -2.168306 5.867887 5.071180 -51.910279 -4.740757 4.599819 40.636671 5.654816 10.824591 3.615740 0.000000 0.000000 0.000000 -1.394264 4.755844 -30.975536 11.694590 4.157223 62.865652 -10.522956 -26.577108 -23.950204 0.000000 0.000000 0.000000 6.299000 1.067211 48.798829 -6.603835 1.724090 -25.145831 -3.963909 8.100188 30.011936 11.444027 -5.355967 -28.011387 0.000000 0.000000 0.000000 -20.114294 -8.600643 4.689868 -45.318574 4.612092 -9.733358 -24.066615 -52.871870 15.811791 0.000000 0.000000 0.000000 23.317031 2.255208 -0.737453 50.325874 -5.353469 -9.640799 31.609470 48.768301 16.791711 0.000000 0.000000 0.000000 
-0.006943 0.800359 0.021412 3.779208 -26.131806 -0.176145 6.727423 5.491124 -51.007709 -4.892629 4.732902 40.286878 5.654108 10.727775 3.542763 0.000000 0.000000 0.000000 -0.589884 5.496401 -33.012368 14.457713 2.877855 67.690375 -9.936894 -25.517148 -20.640002 0.000000 0.000000 0.000000 6.510961 0.973488 48.785254 -5.888822 1.481502 -26.706467 -2.395957 9.704061 29.815322 9.850470 -3.403468 -32.514104 0.000000 0.000000 0.000000 -24.414005 -8.339856 4.304855 -40.122922 4.742210 -8.504060 -28.987771 -49.693405 16.536170 0.000000 0.000000 0.000000 23.335243 0.379741 -1.404596 50.154535 -6.921355 -10.255035 34.934866 48.382011 18.491215 0.000000 0.000000 0.000000 
-0.013356 0.797968 0.045477 4.469995 -25.265258 0.285933 4.501387 4.286614 -52.361841 -3.827628 4.774921 45.083619 5.789998 11.157588 3.357836 0.000000 0.000000 0.000000 -1.269727 4.785776 -31.045172 13.942386 3.270783 68.943977 -10.483452 -28.271672 -21.644719 0.000000 0.000000 0.000000 6.037723 0.875740 47.524542 -6.794191 1.698787 -26.567829 -3.204298 7.580951 29.355844 10.219105 -4.060601 -31.806149 0.000000 0.000000 0.000000 -23.383679 -6.552077 3.863677 -42.242151 6.556002 -9.653209 -31.382785 -48.121868 17.529776 0.000000 0.000000 0.000000 25.026769 -0.059169 -2.569698 47.418101 -8.331041 -9.949538 38.804460 45.156854 18.244464 0.000000 0.000000 0.000000 
-0.019222 0.798980 0.072448 4.821521 -27.741968 0.664912 2.262194 3.730302 -52.454177 -1.259996 4.451032 49.717741 5.272988 10.112156 1.589078 0.000000 0.000000 0.000000 -1.219677 5.238828 -32.189190 14.979704 3.665418 71.028817 -10.356007 -27.736646 -19.577330 0.000000 0.000000 0.000000 4.870695 1.886615 47.312440 -6.309933 1.569249 -28.998001 -3.500413 9.635696 32.596972 10.088478 -3.724530 -33.219049 0.000000 0.000000 0.000000 -22.564496 -6.922906 3.986259 -42.496341 5.858253 -9.706755 -32.925859 -46.491196 17.573844 0.000000 0.000000 0.000000 24.865687 0.232978 -2.036228 48.425657 -7.535582 -10.257179 36.540375 44.610020 17.243225 0.000000 0.000000 0.000000 
-0.024899 0.800232 0.101338 4.702659 -28.387896 2.102662 0.871176 3.518128 -54.423595 -0.334839 4.841928 56.143759 5.427468 10.310941 -0.328613 0.000000 0.000000 0.000000 -2.769270 5.186620 -33.123809 16.801076 2.516323 72.673137 -10.317593 -27.753979 -15.406124 0.000000 0.000000 0.000000 3.620100 2.150702 44.850368 -7.715157 1.833724 -26.941334 -2.832742 8.867340 31.316349 9.537636 -3.813013 -31.840276 0.000000 0.000000 0.000000 -23.557137 -7.500548 4.782297 -41.386838 6.153778 -9.485510 -32.835645 -45.897735 17.282977 0.000000 0.000000 0.000000 25.523829 0.061760 -2.798233 46.329394 -8.621251 -9.852837 38.886458 46.100839 18.519452 0.000000 0.000000 0.000000 
-0.030784 0.800766 0.130832 3.950721 -28.583199 2.820381 -0.236501 3.031070 -54.996301 2.720690 3.361988 61.512643 4.102671 7.753941 -0.916177 0.000000 0.000000 0.000000 -4.879199 5.820164 -37.459458 21.627524 -1.813038 79.255194 -11.336600 -30.044359 -5.100593 0.000000 0.000000 0.000000 3.292348 2.225295 44.346660 -8.396204 2.008254 -26.313326 -2.471598 8.094144 31.185332 9.334712 -3.573915 -33.383726 0.000000 0.000000 0.000000 -23.192470 -7.458547 5.048651 -43.403776 6.362482 -10.045021 -29.392844 -44.901966 15.533691 0.000000 0.000000 0.000000 24.070235 -0.207509 -3.094464 47.520070 -9.621831 -10.394015 39.159094 47.017888 18.861040 0.000000 0.000000 0.000000 
-0.038160 0.802882 0.160599 2.288083 -28.460390 2.545402 -0.184931 2.806159 -53.673588 4.125464 3.124456 66.726135 3.565872 6.476143 -2.377401 0.000000 0.000000 0.000000 -8.315446 6.735958 -44.691107 27.350823 -9.170668 84.164838 -11.015879 -26.801596 6.849579 0.000000 0.000000 0.000000 2.793489 2.599687 45.659913 -7.529240 1.795933 -26.154680 -1.473302 8.088580 31.513203 9.051695 -3.352278 -33.551181 0.000000 0.000000 0.000000 -23.452750 -7.521372 5.003402 -45.046046 6.257652 -10.378873 -28.955277 -44.060706 15.089982 0.000000 0.000000 0.000000 23.784877 -0.624569 -3.183373 47.973000 -10.227528 -10.761550 36.052015 47.113436 17.535228 0.000000 0.000000 0.000000 
-0.048115 0.800733 0.191750 0.280434 -27.398866 2.344298 0.442513 2.560800 -52.318931 5.318371 2.414801 71.103739 2.873172 4.416702 -4.803930 0.000000 0.000000 0.000000 -11.695317 7.225531 -52.234380 30.878403 -14.525567 81.457551 -12.101565 -29.208402 5.361026 0.000000 0.000000 0.000000 4.321324 1.871557 47.193237 -8.314215 2.010011 -25.613560 -1.380569 5.975671 31.124270 9.082897 -3.568175 -33.868202 0.000000 0.000000 0.000000 -23.888262 -7.144931 5.152771 -46.079920 7.105946 -10.996013 -28.776968 -43.416486 14.918022 0.000000 0.000000 0.000000 24.230158 -1.166041 -3.955943 47.424654 -12.743765 -11.462804 34.605833 47.130460 16.632995 0.000000 0.000000 0.000000 
-0.060306 0.798309 0.224505 -1.436152 -26.830617 0.828351 1.647768 2.439244 -48.678467 5.996960 2.434887 73.275332 2.420788 2.963098 -6.179688 0.000000 0.000000 0.000000 -11.515035 8.118466 -56.095673 29.386946 -12.415806 74.087440 -10.879729 -28.054782 0.034066 0.000000 0.000000 0.000000 4.775970 1.805551 49.285334 -7.057522 1.734171 -24.839607 -1.869692 4.625090 30.424683 8.490544 -3.309790 -34.249958 0.000000 0.000000 0.000000 -24.352679 -6.331885 4.830233 -47.004394 6.928526 -11.195044 -28.965771 -40.570698 14.038145 0.000000 0.000000 0.000000 23.629752 -1.089863 -3.992220 46.875206 -14.844969 -12.032817 32.343925 45.171988 14.714103 0.000000 0.000000 0.000000 
-0.074269 0.793836 0.259152 -3.076226 -26.372649 -0.075992 2.662054 2.257232 -45.218193 7.265012 1.815946 75.675266 2.103355 1.118912 -8.915628 0.000000 0.000000 0.000000 -9.830138 8.718346 -56.101369 24.527961 -6.987313 59.934851 -9.212813 -24.922690 -7.389884 0.000000 0.000000 0.000000 6.660672 0.879741 49.851800 -7.223817 1.814597 -24.425318 -2.446305 2.978292 30.719288 7.642029 -3.189576 -33.968664 0.000000 0.000000 0.000000 -23.761950 -5.955530 4.919049 -49.460488 7.428884 -12.054275 -26.224160 -39.625010 12.784838 0.000000 0.000000 0.000000 22.682126 -1.557271 -4.439970 47.047998 -16.684728 -12.820945 30.579777 43.353961 13.143094 0.000000 0.000000 0.000000 
-0.090379 0.787725 0.295688 -3.637788 -26.898006 -0.832061 3.434774 2.019960 -40.669593 7.692937 2.567069 76.914250 2.699958 0.976942 -12.750931 0.000000 0.000000 0.000000 -6.716510 9.471912 -53.450368 14.527447 -1.025912 43.536508 -7.123651 -16.779897 -9.598928 0.000000 0.000000 0.000000 6.988667 0.863930 49.935476 -7.911250 1.997822 -24.202602 -1.774101 2.552291 30.934502 7.649090 -3.225147 -34.469861 0.000000 0.000000 0.000000 -23.045405 -4.417126 4.058355 -51.175477 7.701628 -12.533952 -27.138298 -38.878689 13.040694 0.000000 0.000000 0.000000 21.704323 -1.008437 -4.079697 49.584330 -17.948693 -14.198347 25.426408 41.471076 10.549708 0.000000 0.000000 0.000000 
